<svg width="23" height="23" viewBox="0 0 23 23" fill="none" xmlns="http://www.w3.org/2000/svg">
<path d="M11.7451 1C12.2173 1 12.6271 1.12529 12.9893 1.37305V1.37402L21.4512 7.20312L21.7344 6.79199L21.4512 7.2041L21.457 7.20801C21.7086 7.37576 21.9015 7.58538 22.041 7.84082L22.042 7.84277C22.1822 8.09725 22.25 8.36084 22.25 8.64062V21.0703C22.2499 21.2969 22.1645 21.5009 21.9434 21.7021C21.7216 21.9039 21.4745 22 21.1787 22H15.8613C15.6124 22 15.4338 21.9278 15.292 21.7988H15.293C15.1529 21.6708 15.0909 21.53 15.0908 21.3447V14.5254C15.0908 14.0569 14.9099 13.6484 14.5635 13.333C14.2188 13.0194 13.7931 12.8701 13.3213 12.8701H10.1787C9.70776 12.8701 9.28308 13.0188 8.93945 13.332C8.59163 13.6472 8.40918 14.0561 8.40918 14.5254V21.3457C8.40918 21.5311 8.34752 21.6719 8.20801 21.7988C8.06596 21.9281 7.88808 22 7.64062 22H2.32129C2.02545 22 1.77836 21.9039 1.55664 21.7021C1.3355 21.5009 1.25007 21.2969 1.25 21.0703V8.64062L1.2627 8.43359C1.28837 8.22954 1.35289 8.0336 1.45801 7.84277C1.59879 7.5873 1.7918 7.37704 2.04297 7.20898L2.04883 7.20508L10.5107 1.37402L10.5127 1.37207C10.8673 1.12575 11.2726 1.00003 11.7451 1Z" stroke="black"/>
</svg>
