<svg width="23" height="23" viewBox="0 0 23 23" fill="none" xmlns="http://www.w3.org/2000/svg">
<path d="M0.75 20.6911V8.26188C0.75 7.89581 0.840095 7.54928 1.02029 7.2223C1.20048 6.89531 1.44876 6.626 1.76514 6.41437L10.2273 0.582973C10.6704 0.275054 11.1764 0.121094 11.7453 0.121094C12.3141 0.121094 12.8233 0.275054 13.2727 0.582973L21.7349 6.41294C22.0523 6.62457 22.3006 6.89436 22.4797 7.2223C22.6599 7.54928 22.75 7.89581 22.75 8.26188V20.6911C22.75 21.0744 22.5934 21.4085 22.2801 21.6935C21.9669 21.9786 21.5997 22.1211 21.1786 22.1211H15.8609C15.5005 22.1211 15.1988 22.0105 14.9557 21.7893C14.7127 21.5672 14.5911 21.2927 14.5911 20.9657V14.1462C14.5911 13.8192 14.4696 13.5451 14.2266 13.324C13.9825 13.1018 13.6808 12.9908 13.3214 12.9908H10.1786C9.81924 12.9908 9.51805 13.1018 9.275 13.324C9.0309 13.5451 8.90886 13.8192 8.90886 14.1462V20.9671C8.90886 21.2941 8.78733 21.5682 8.54429 21.7893C8.30124 22.0105 8.00005 22.1211 7.64071 22.1211H2.32143C1.90029 22.1211 1.53309 21.9786 1.21986 21.6935C0.906619 21.4085 0.75 21.0744 0.75 20.6911Z" fill="black"/>
</svg>
