<svg width="19" height="20" viewBox="0 0 19 20" fill="none" xmlns="http://www.w3.org/2000/svg">
<path d="M15.32 12.0326V2.9126C15.32 2.24956 15.0566 1.61367 14.5877 1.14483C14.1189 0.67599 13.483 0.412598 12.82 0.412598H3.21997C2.55693 0.412598 1.92104 0.67599 1.4522 1.14483C0.983363 1.61367 0.719971 2.24956 0.719971 2.9126V14.6326C0.719971 15.2956 0.983363 15.9315 1.4522 16.4004C1.92104 16.8692 2.55693 17.1326 3.21997 17.1326H11C11.2433 17.736 11.6383 18.2663 12.1467 18.6721C12.6552 19.0779 13.2598 19.3456 13.9021 19.4491C14.5444 19.5526 15.2025 19.4884 15.8127 19.2628C16.4229 19.0372 16.9645 18.6578 17.385 18.1614C17.8055 17.665 18.0906 17.0684 18.2128 16.4294C18.3349 15.7904 18.29 15.1307 18.0822 14.5142C17.8745 13.8977 17.5111 13.3453 17.0271 12.9105C16.5432 12.4757 15.9551 12.1733 15.32 12.0326ZM4.46997 4.0126H11.57C11.7019 4.01466 11.8279 4.068 11.9212 4.16133C12.0146 4.25465 12.0679 4.38063 12.07 4.5126C12.07 4.64521 12.0173 4.77238 11.9235 4.86615C11.8298 4.95992 11.7026 5.0126 11.57 5.0126H4.46997C4.33736 5.0126 4.21019 4.95992 4.11642 4.86615C4.02265 4.77238 3.96997 4.64521 3.96997 4.5126C3.97203 4.38063 4.02537 4.25465 4.1187 4.16133C4.21202 4.068 4.33801 4.01466 4.46997 4.0126ZM4.46997 6.8526H11.57C11.7026 6.8526 11.8298 6.90528 11.9235 6.99904C12.0173 7.09281 12.07 7.21999 12.07 7.3526C12.07 7.48521 12.0173 7.61238 11.9235 7.70615C11.8298 7.79992 11.7026 7.8526 11.57 7.8526H4.46997C4.33736 7.8526 4.21019 7.79992 4.11642 7.70615C4.02265 7.61238 3.96997 7.48521 3.96997 7.3526C3.96997 7.21999 4.02265 7.09281 4.11642 6.99904C4.21019 6.90528 4.33736 6.8526 4.46997 6.8526ZM4.46997 9.6926H11.57C11.7026 9.6926 11.8298 9.74528 11.9235 9.83904C12.0173 9.93281 12.07 10.06 12.07 10.1926C12.0679 10.3246 12.0146 10.4505 11.9212 10.5439C11.8279 10.6372 11.7019 10.6905 11.57 10.6926H4.46997C4.33801 10.6905 4.21202 10.6372 4.1187 10.5439C4.02537 10.4505 3.97203 10.3246 3.96997 10.1926C3.96997 10.06 4.02265 9.93281 4.11642 9.83904C4.21019 9.74528 4.33736 9.6926 4.46997 9.6926ZM9.93997 13.5326H4.46997C4.33736 13.5326 4.21019 13.4799 4.11642 13.3862C4.02265 13.2924 3.96997 13.1652 3.96997 13.0326C3.96997 12.9 4.02265 12.7728 4.11642 12.679C4.21019 12.5853 4.33736 12.5326 4.46997 12.5326H9.93997C10.0726 12.5326 10.1998 12.5853 10.2935 12.679C10.3873 12.7728 10.44 12.9 10.44 13.0326C10.44 13.1652 10.3873 13.2924 10.2935 13.3862C10.1998 13.4799 10.0726 13.5326 9.93997 13.5326ZM14.5 18.5026C13.9492 18.5036 13.4104 18.3412 12.9519 18.036C12.4933 17.7308 12.1356 17.2965 11.9239 16.788C11.7122 16.2795 11.656 15.7196 11.7625 15.1792C11.869 14.6388 12.1334 14.142 12.5222 13.7518C12.9109 13.3617 13.4067 13.0955 13.9467 12.9871C14.4868 12.8787 15.0469 12.9328 15.5561 13.1427C16.0654 13.3526 16.501 13.7087 16.8078 14.1662C17.1147 14.6236 17.279 15.1618 17.28 15.7126C17.2802 16.4509 16.9878 17.1592 16.4666 17.6822C15.9455 18.2052 15.2383 18.5002 14.5 18.5026ZM15 14.2176V15.7176C15.0001 15.8181 14.9699 15.9164 14.9134 15.9995C14.8568 16.0826 14.7765 16.1468 14.683 16.1836L13.765 16.5426C13.7067 16.5655 13.6446 16.5771 13.582 16.5766C13.4653 16.5768 13.3522 16.5361 13.2623 16.4617C13.1725 16.3873 13.1114 16.2838 13.0898 16.1692C13.0682 16.0545 13.0874 15.9359 13.1441 15.8339C13.2007 15.7319 13.2912 15.6529 13.4 15.6106L14 15.3766V14.2176C14 14.085 14.0526 13.9578 14.1464 13.864C14.2402 13.7703 14.3674 13.7176 14.5 13.7176C14.6326 13.7176 14.7598 13.7703 14.8535 13.864C14.9473 13.9578 15 14.085 15 14.2176Z" fill="#A4A4A4"/>
</svg>
