<svg width="21" height="21" viewBox="0 0 21 21" fill="none" xmlns="http://www.w3.org/2000/svg">
<path d="M6.08332 17.7187V16.3337C6.08332 15.8916 6.25892 15.4677 6.57148 15.1551C6.88404 14.8426 7.30796 14.667 7.74999 14.667H12.75C13.192 14.667 13.6159 14.8426 13.9285 15.1551C14.2411 15.4677 14.4167 15.8916 14.4167 16.3337V17.7187M18.5833 10.5003C18.5833 15.1027 14.8524 18.8337 10.25 18.8337C5.64762 18.8337 1.91666 15.1027 1.91666 10.5003C1.91666 5.89795 5.64762 2.16699 10.25 2.16699C14.8524 2.16699 18.5833 5.89795 18.5833 10.5003ZM12.75 8.83366C12.75 10.2144 11.6307 11.3337 10.25 11.3337C8.86928 11.3337 7.74999 10.2144 7.74999 8.83366C7.74999 7.45295 8.86928 6.33366 10.25 6.33366C11.6307 6.33366 12.75 7.45295 12.75 8.83366Z" stroke="black" stroke-width="0.833333" stroke-linecap="round" stroke-linejoin="round"/>
</svg>
