<svg width="21" height="21" viewBox="0 0 21 21" fill="none" xmlns="http://www.w3.org/2000/svg">
<path d="M10.25 18.8332C14.8524 18.8332 18.5833 15.1022 18.5833 10.4998C18.5833 5.89746 14.8524 2.1665 10.25 2.1665C5.64762 2.1665 1.91666 5.89746 1.91666 10.4998C1.91666 15.1022 5.64762 18.8332 10.25 18.8332Z" fill="black"/>
<path d="M10.25 11.3332C11.6307 11.3332 12.75 10.2139 12.75 8.83317C12.75 7.45246 11.6307 6.33317 10.25 6.33317C8.86928 6.33317 7.74999 7.45246 7.74999 8.83317C7.74999 10.2139 8.86928 11.3332 10.25 11.3332Z" fill="black"/>
<path d="M6.08332 17.7182V16.3332C6.08332 15.8911 6.25892 15.4672 6.57148 15.1547C6.88404 14.8421 7.30796 14.6665 7.74999 14.6665H12.75C13.192 14.6665 13.6159 14.8421 13.9285 15.1547C14.2411 15.4672 14.4167 15.8911 14.4167 16.3332V17.7182" fill="black"/>
<path d="M6.08332 17.7182V16.3332C6.08332 15.8911 6.25892 15.4672 6.57148 15.1547C6.88404 14.8421 7.30796 14.6665 7.74999 14.6665H12.75C13.192 14.6665 13.6159 14.8421 13.9285 15.1547C14.2411 15.4672 14.4167 15.8911 14.4167 16.3332V17.7182M18.5833 10.4998C18.5833 15.1022 14.8524 18.8332 10.25 18.8332C5.64762 18.8332 1.91666 15.1022 1.91666 10.4998C1.91666 5.89746 5.64762 2.1665 10.25 2.1665C14.8524 2.1665 18.5833 5.89746 18.5833 10.4998ZM12.75 8.83317C12.75 10.2139 11.6307 11.3332 10.25 11.3332C8.86928 11.3332 7.74999 10.2139 7.74999 8.83317C7.74999 7.45246 8.86928 6.33317 10.25 6.33317C11.6307 6.33317 12.75 7.45246 12.75 8.83317Z" stroke="#F4F4F4" stroke-linecap="round" stroke-linejoin="round"/>
</svg>
